<svg xmlns="http://www.w3.org/2000/svg" xmlns:xlink="http://www.w3.org/1999/xlink" width="270" height="77" viewBox="0 0 270 77">
  <defs>
    <clipPath id="clip-path">
      <rect id="crop" width="270" height="77" transform="translate(0 0)" fill="none"/>
    </clipPath>
    <clipPath id="clip-path-3">
      <path id="Path_17" data-name="Path 17" d="M34.1,0q-.768,0-1.523.04l.055,4.669C42.644,5.2,49.56,7.38,57.538,12.649c.951.629,2.012,1.563,2.749,1.919-.1,1.19-.827,2.9-1.072,4.315-1.317,7.566,2.036,21.025-3.316,33.4C53,59,45.86,64.663,39.955,68.281c-.858.526-6.118,3.627-6.864,3.619-.821-.01-6.044-3.122-6.987-3.685C6.658,56.573,6.658,45.041,7.114,23.9c.1-4.47-.516-5.416-1.383-9.128C7.1,12.98,14.359,9.081,16.985,8.043c7.513-2.968,6.057-.173,6.065,9.826q.008,8.957,0,17.91c0,14.94.819,12.542-4.67,13.242l0,3.686,14.4-.034.01-3.694c-3.587-.215-4.1-.755-3.884-4.624,2.027-1.064,3.494-3.3,5.4-3.947.864,1.2,1.773,2.571,2.626,3.78.7.993,2.4,2.891,2.18,4.315a3.934,3.934,0,0,1-2.346.467c-.291,0-.607,0-.965.01l0,3.7L51.97,52.7c-.024-.572.1-3.474-.208-3.694-2.2-.548-2.876.04-4.73-1.455A19.784,19.784,0,0,1,44.2,44L38.97,36.641a49.216,49.216,0,0,1,4.691-3.94c2.22-1.809,2.673-2.078,6.31-2.351l.063-3.853-16.608-.064,0,3.87a10.464,10.464,0,0,0,1.88.013,5.415,5.415,0,0,1,2.987.419c.019,1.177-7.78,7.586-9.428,8.357L28.825.247C24.7.032,15.783,3.2,12.555,4.84,4.23,9.053,1.847,12.175,0,13.189c.069.551,1.312,3.1,1.841,5.106a20.53,20.53,0,0,1,.506,6.462C2.217,32.7,1.876,41.958,4.2,49.733c2.389,7.983,6.5,12.861,12.691,17.839a69.83,69.83,0,0,0,12.6,7.949c3.906,1.909,3.158,2.011,7.077.068,2.384-1.185,4.407-2.4,6.508-3.684,8.7-5.3,15.728-12.1,18.751-22.152,4.1-13.647.061-24.862,2.795-32.889a30.058,30.058,0,0,0,1.4-3.707l-3.3-2.582C55.34,4.808,43.933,0,34.1,0Z" fill="none"/>
    </clipPath>
    <linearGradient id="linear-gradient" y1="0.993" x2="0.01" y2="0.993" gradientUnits="objectBoundingBox">
      <stop offset="0" stop-color="#c1a460"/>
      <stop offset="1" stop-color="#996b13"/>
    </linearGradient>
  </defs>
  <g id="Vector_Smart_Object" data-name="Vector Smart Object" transform="translate(0 0)" clip-path="url(#clip-path)">
    <g id="Group_5" data-name="Group 5">
      <g id="Group_4" data-name="Group 4" clip-path="url(#clip-path)">
        <path id="Path_16" data-name="Path 16" d="M261.264,56.137V66.6h-3.479V56.177l-8.733-16.644h3.792l6.8,13.653L266.4,39.533H270Zm-23.6-3.817a7.3,7.3,0,0,0,4.606-1.24,4.744,4.744,0,0,0,1.559-3.953,4.381,4.381,0,0,0-1.559-3.738q-1.565-1.18-5.04-1.18h-3.559V52.321Zm.514,2.634h-4.506V66.6h-3.4V39.533h6.995q5.021,0,7.609,1.929a6.613,6.613,0,0,1,2.589,5.665,6.92,6.92,0,0,1-1.483,4.6,8.851,8.851,0,0,1-4.446,2.635L248.894,66.6h-4.072ZM225.415,42.445h-7.629V66.6h-3.4V42.445H206.56V39.533h19.25Zm-29.921-3.384a12.394,12.394,0,0,1,4.6.768,12.234,12.234,0,0,1,3.656,2.341L201.9,44.254a11.726,11.726,0,0,0-3.023-1.791,8.9,8.9,0,0,0-3.221-.568,5.986,5.986,0,0,0-3.658,1.04,3.484,3.484,0,0,0-1.4,2.973,4.006,4.006,0,0,0,.492,2.084,4.433,4.433,0,0,0,1.8,1.515,22.651,22.651,0,0,0,3.756,1.437,24.438,24.438,0,0,1,4.269,1.691,7.138,7.138,0,0,1,2.707,2.478,7.249,7.249,0,0,1,1.009,3.974,7.372,7.372,0,0,1-4.448,6.984,11.932,11.932,0,0,1-5.078,1,12.625,12.625,0,0,1-9.131-3.463l1.936-2.163a12.713,12.713,0,0,0,3.321,2.084,9.886,9.886,0,0,0,3.835.707,6.814,6.814,0,0,0,4.306-1.316,4.431,4.431,0,0,0,1.7-3.719,4.743,4.743,0,0,0-.535-2.36,4.515,4.515,0,0,0-1.817-1.654,19.315,19.315,0,0,0-3.656-1.415,15.728,15.728,0,0,1-6.089-3.01,6.134,6.134,0,0,1-1.9-4.739,6.329,6.329,0,0,1,1.067-3.6,7.05,7.05,0,0,1,2.984-2.478,10.317,10.317,0,0,1,4.369-.886M180.79,66.6h-3.4V39.533h3.4Zm-10.593,0h-3.321L165.85,54.208Q165.174,46.772,165.1,43l-6.126,20.5h-3.2l-6.4-20.537q-.079,5.036-.632,11.448l-.948,12.2h-3.242l2.294-27.07H151.5l5.968,20.026,5.691-20.026h4.664ZM139.247,42.288H128.536v9.128h9.289v2.753h-9.289v9.678h11.383V66.6H125.136V39.533h14.506ZM113.556,53.776h-11.82V66.6h-3.4V39.533h3.4V50.944h11.82V39.533H117V66.6h-3.44ZM85.729,39.061a11.234,11.234,0,0,1,4.011.629A13,13,0,0,1,93.121,41.7l-1.859,2.2a10.066,10.066,0,0,0-2.589-1.515,7.625,7.625,0,0,0-2.747-.49,6.885,6.885,0,0,0-5.652,2.656Q78.14,47.2,78.141,53.068q0,5.627,2.133,8.36a6.771,6.771,0,0,0,5.612,2.734,7.434,7.434,0,0,0,3.084-.59A13.82,13.82,0,0,0,91.7,61.881l1.741,2.2a9.929,9.929,0,0,1-3.221,2.144,11.119,11.119,0,0,1-4.448.847,10.567,10.567,0,0,1-5.828-1.633,10.852,10.852,0,0,1-3.993-4.779A18.142,18.142,0,0,1,74.5,53.068a17.855,17.855,0,0,1,1.483-7.613,10.955,10.955,0,0,1,4.032-4.779,10.44,10.44,0,0,1,5.71-1.615m143.837-5.33h-4.585L213.516,10.4q.474,5.19.474,10.269v13.06h-3.2V6.664h4.467L226.8,30.035q-.118-1.141-.276-3.6t-.158-4.621V6.664h3.2Zm-26.918,0h-3.4V6.664h3.4ZM183.911,19.056l11.267,14.675h-4.23l-10.99-14.478,10.6-12.589h3.911ZM179.76,33.731h-3.4V6.664h3.4ZM161.422,6.192a12.385,12.385,0,0,1,4.6.766A12.306,12.306,0,0,1,169.681,9.3l-1.857,2.087A11.706,11.706,0,0,0,164.8,9.6a8.889,8.889,0,0,0-3.221-.572,5.985,5.985,0,0,0-3.658,1.044,3.478,3.478,0,0,0-1.4,2.97,4.016,4.016,0,0,0,.492,2.086,4.435,4.435,0,0,0,1.8,1.513,22.236,22.236,0,0,0,3.755,1.436,24.242,24.242,0,0,1,4.269,1.694,7.133,7.133,0,0,1,2.708,2.477,7.244,7.244,0,0,1,1.009,3.974A7.371,7.371,0,0,1,166.1,33.2a11.917,11.917,0,0,1-5.078,1,12.634,12.634,0,0,1-9.131-3.464l1.936-2.165a12.641,12.641,0,0,0,3.321,2.086,9.886,9.886,0,0,0,3.835.708,6.816,6.816,0,0,0,4.306-1.319,4.427,4.427,0,0,0,1.7-3.717,4.764,4.764,0,0,0-.535-2.362,4.5,4.5,0,0,0-1.818-1.652,19.306,19.306,0,0,0-3.655-1.415A15.746,15.746,0,0,1,154.9,17.9a6.138,6.138,0,0,1-1.9-4.743,6.321,6.321,0,0,1,1.067-3.6,7.074,7.074,0,0,1,2.984-2.48,10.315,10.315,0,0,1,4.369-.884M137.43,9.417H126.718v9.128H136V21.3h-9.287v9.679H138.1v2.752H123.319V6.664h14.506Zm-25.691,11.49H99.918V33.731h-3.4V6.664h3.4V18.073h11.82V6.664h3.436V33.731h-3.436ZM91.657,9.574H84.03V33.731h-3.4V9.574H72.805V6.664H92.052Z" fill="#053d58" fill-rule="evenodd"/>
      </g>
    </g>
    <g id="Group_7" data-name="Group 7">
      <g id="Group_6" data-name="Group 6" clip-path="url(#clip-path-3)">
        <rect id="Rectangle_4" data-name="Rectangle 4" width="66.026" height="77.532" transform="translate(0 0)" fill="url(#linear-gradient)"/>
      </g>
    </g>
  </g>
</svg>
